<?xml version="1.0" encoding="utf-8"?>
<!-- Generator: Adobe Illustrator 20.1.0, SVG Export Plug-In . SVG Version: 6.00 Build 0)  -->
<svg version="1.1" id="Lager_1" xmlns="http://www.w3.org/2000/svg" xmlns:xlink="http://www.w3.org/1999/xlink" x="0px" y="0px"
	 viewBox="0 0 105 88" style="enable-background:new 0 0 105 88;" xml:space="preserve">
<style type="text/css">
	.st0{fill:#FFFFFF;}
</style>
<g>
	<polygon class="st0" points="12.2,42.2 23.5,42.2 23.5,45 19.7,45 19.7,56.9 16,56.9 16,45 12.2,45 	"/>
	<polygon class="st0" points="25.4,56.9 25.4,42.2 36.2,42.2 36.2,45 29.1,45 29.1,47.7 35.7,47.7 35.7,50.6 29.1,50.6 29.1,54 
		36.8,54 36.8,56.9 	"/>
	<polygon class="st0" points="38.9,42.2 42.6,42.2 42.6,48.1 47.8,42.2 52.7,42.2 47.4,47.8 52.9,56.9 48.8,56.9 44.8,50.4 
		42.6,52.6 42.6,56.9 38.9,56.9 	"/>
	<polygon class="st0" points="54.4,42.2 58.1,42.2 63.4,51.6 63.5,51.6 63.5,42.2 66.8,42.2 66.8,56.9 63.1,56.9 57.7,47.6 
		57.7,47.6 57.7,56.9 54.4,56.9 	"/>
	<rect x="69.9" y="42.2" class="st0" width="3.7" height="14.7"/>
	<polygon class="st0" points="76.7,42.2 80.4,42.2 80.4,48.1 85.6,42.2 90.5,42.2 85.1,47.8 90.6,56.9 86.6,56.9 82.6,50.4 
		80.4,52.6 80.4,56.9 76.7,56.9 	"/>
	<path class="st0" d="M23.9,63.2c-1.1-1.2-2.7-1.9-4.4-1.9c-3.2,0-5.8,2.8-5.8,5.9c0,3.2,2.6,5.9,5.8,5.9c1.6,0,3.2-0.8,4.3-1.9v2
		c-1.2,0.9-2.8,1.4-4.3,1.4c-4,0-7.5-3.3-7.5-7.4s3.4-7.5,7.5-7.5c1.6,0,3,0.5,4.3,1.4v2.1H23.9z"/>
	<path class="st0" d="M40.9,67.2c0,4.1-3.4,7.4-7.5,7.4s-7.5-3.3-7.5-7.4s3.4-7.4,7.5-7.4C37.5,59.8,40.9,63.1,40.9,67.2 M27.5,67.2
		c0,3.2,2.6,5.9,5.9,5.9s5.9-2.7,5.9-5.9c0-3.3-2.6-5.9-5.9-5.9C30.1,61.3,27.5,64,27.5,67.2"/>
	<polygon class="st0" points="44.6,72.9 48.6,72.9 48.6,74.4 43,74.4 43,60.1 44.6,60.1 	"/>
	<polygon class="st0" points="51.8,72.9 55.7,72.9 55.7,74.4 50.2,74.4 50.2,60.1 51.8,60.1 	"/>
	<polygon class="st0" points="57.3,60.1 64.7,60.1 64.7,61.5 58.9,61.5 58.9,65.8 64.6,65.8 64.6,67.3 58.9,67.3 58.9,72.9 
		64.7,72.9 64.7,74.4 57.3,74.4 	"/>
	<path class="st0" d="M80.8,67.2c0,1.9-0.2,3.5-1.5,5.1C78,73.8,76,74.6,74,74.6c-4,0-7.4-3.3-7.4-7.4s3.3-7.5,7.5-7.5
		c2.5,0,4.5,1.1,6.1,3.1L79,64c-1.2-1.7-2.8-2.7-4.9-2.7c-3.3,0-5.9,2.8-5.9,6c0,1.5,0.6,3,1.7,4c1,1,2.6,1.8,4.1,1.8
		c2.5,0,5.1-1.8,5.1-4.5h-4.3v-1.5L80.8,67.2L80.8,67.2z"/>
	<polygon class="st0" points="83,60.1 90.5,60.1 90.5,61.5 84.6,61.5 84.6,65.8 90.3,65.8 90.3,67.3 84.6,67.3 84.6,72.9 90.5,72.9 
		90.5,74.4 83,74.4 	"/>
	<rect x="43.7" y="34.4" class="st0" width="15.5" height="4.5"/>
	<path class="st0" d="M54.6,13.2c0,1.7-1.4,3.1-3.1,3.1c-1.7,0-3.1-1.4-3.1-3.1s1.4-3.1,3.1-3.1C53.2,10.1,54.6,11.5,54.6,13.2"/>
	<path class="st0" d="M59,22.9c-3,0-5.6,1.3-7.5,3.4l0,0c-1.8-2.1-4.5-3.4-7.5-3.4c-5.5,0-9.9,4.4-9.9,9.9c0,2.3,0.8,4.3,2,6h5.1
		c-2.3-1-3.9-3.3-3.9-6c0-3.6,3-6.6,6.6-6.6c2.6,0,4.6,1.3,5.9,3.6c0.9,1.6,1.4,2.6,1.6,3.1l0,0c0.2-0.5,0.7-1.6,1.6-3.1
		c1.3-2.3,3.3-3.6,5.9-3.6c3.7,0,6.6,3,6.6,6.6c0,2.7-1.6,5-3.9,6h5.1c1.3-1.7,2-3.8,2-6C68.9,27.3,64.5,22.9,59,22.9"/>
	<path class="st0" d="M37.4,22.5c0,1.7-1.4,3.1-3.1,3.1c-1.7,0-3.1-1.4-3.1-3.1s1.4-3.1,3.1-3.1C36,19.5,37.4,20.8,37.4,22.5"/>
	<path class="st0" d="M71.8,22.5c0,1.7-1.4,3.1-3.1,3.1s-3.1-1.4-3.1-3.1s1.4-3.1,3.1-3.1C70.4,19.5,71.8,20.8,71.8,22.5"/>
	<path class="st0" d="M59.2,24.9c-0.5,0-1.1,0.1-1.6,0.2c0.3,0.7,0.4,1.5,0.4,2.3c0,2.5-1.3,4.6-3.3,5.7h4.8
		c1.2-1.6,1.8-3.6,1.8-5.7c0-0.8-0.1-1.5-0.3-2.2C60.6,25,59.9,24.9,59.2,24.9"/>
	<path class="st0" d="M43.9,21.6c1.2,0,2.4,0.2,3.5,0.6c1.1-0.9,2.5-1.4,4.1-1.4s3,0.5,4.1,1.5c1.1-0.4,2.3-0.7,3.6-0.7
		c0.1,0,0.2,0,0.3,0c-1.8-2.5-4.7-4.1-8-4.1s-6.2,1.6-8,4.1C43.6,21.6,43.8,21.6,43.9,21.6"/>
	<path class="st0" d="M44.9,27.4c0-0.8,0.2-1.6,0.4-2.4c-0.5-0.1-0.9-0.1-1.4-0.1c-0.7,0-1.4,0.1-2.1,0.3c-0.2,0.7-0.2,1.4-0.2,2.2
		c0,2.1,0.7,4.1,1.8,5.7h4.8C46.2,32,44.9,29.9,44.9,27.4"/>
</g>
</svg>
