<?xml version="1.0" encoding="UTF-8" standalone="no"?>
<!-- Created with Inkscape (http://www.inkscape.org/) -->

<svg
   xmlns:dc="http://purl.org/dc/elements/1.1/"
   xmlns:cc="http://creativecommons.org/ns#"
   xmlns:rdf="http://www.w3.org/1999/02/22-rdf-syntax-ns#"
   xmlns:svg="http://www.w3.org/2000/svg"
   xmlns="http://www.w3.org/2000/svg"
   xmlns:sodipodi="http://sodipodi.sourceforge.net/DTD/sodipodi-0.dtd"
   xmlns:inkscape="http://www.inkscape.org/namespaces/inkscape"
   id="svg2"
   version="1.1"
   inkscape:version="0.91 r13725"
   width="354.32938"
   height="352.38901"
   xml:space="preserve"
   sodipodi:docname="tc-s.svg"><metadata
     id="metadata8"><rdf:RDF><cc:Work
         rdf:about=""><dc:format>image/svg+xml</dc:format><dc:type
           rdf:resource="http://purl.org/dc/dcmitype/StillImage" /><dc:title></dc:title></cc:Work></rdf:RDF></metadata><defs
     id="defs6"><clipPath
       clipPathUnits="userSpaceOnUse"
       id="clipPath40"><path
         d="m 0,841.89 595.276,0 L 595.276,0 0,0 0,841.89 Z"
         id="path42"
         inkscape:connector-curvature="0" /></clipPath></defs><sodipodi:namedview
     pagecolor="#ffffff"
     bordercolor="#666666"
     borderopacity="1"
     objecttolerance="10"
     gridtolerance="10"
     guidetolerance="10"
     inkscape:pageopacity="0"
     inkscape:pageshadow="2"
     inkscape:window-width="1600"
     inkscape:window-height="841"
     id="namedview4"
     showgrid="false"
     inkscape:showpageshadow="true"
     showborder="true"
     inkscape:zoom="1.2685909"
     inkscape:cx="44.931431"
     inkscape:cy="143.9801"
     inkscape:window-x="0"
     inkscape:window-y="0"
     inkscape:window-maximized="1"
     inkscape:current-layer="g10"
     fit-margin-top="0"
     fit-margin-left="0"
     fit-margin-right="0"
     fit-margin-bottom="0"
     borderlayer="true" /><g
     id="g10"
     inkscape:groupmode="layer"
     inkscape:label="logotype_orginal"
     transform="matrix(1.25,0,0,-1.25,-197.43331,671.12087)"><g
       id="g4185"
       inkscape:export-xdpi="299.97513"
       inkscape:export-ydpi="299.97513"><g
         transform="translate(0.93884951,0)"
         id="g4250"><g
           id="g3100"
           style="fill:#29568f;fill-opacity:1"><path
             d="m 157.0078,420.9585 40.953,0 0,-10.281 -13.85,0 0,-42.732 -13.252,0 0,42.732 -13.851,0 0,10.281 z"
             style="fill:#29568f;fill-opacity:1;fill-rule:nonzero;stroke:none"
             id="path16"
             inkscape:connector-curvature="0" /><path
             d="m 204.7715,367.9453 0,53.013 39.018,0 0,-10.281 -25.762,0 0,-9.679 24.047,0 0,-10.268 -24.047,0 0,-12.512 27.997,0 0,-10.273 -41.253,0 z"
             style="fill:#29568f;fill-opacity:1;fill-rule:nonzero;stroke:none"
             id="path20"
             inkscape:connector-curvature="0" /><path
             d="m 253.6328,420.9585 13.247,0 0,-21.15 19.001,21.15 17.566,0 -19.281,-20.103 19.875,-32.91 -14.742,0 -14.445,23.525 -7.974,-8.111 0,-15.414 -13.247,0 0,53.013 z"
             style="fill:#29568f;fill-opacity:1;fill-rule:nonzero;stroke:none"
             id="path24"
             inkscape:connector-curvature="0" /><path
             d="m 309.4316,420.9585 13.402,0 19.282,-33.878 0.152,0 0,33.878 12.062,0 0,-53.013 -13.253,0 -19.434,33.355 -0.148,0 0,-33.355 -12.063,0 0,53.013 z"
             style="fill:#29568f;fill-opacity:1;fill-rule:nonzero;stroke:none"
             id="path28"
             inkscape:connector-curvature="0" /><path
             inkscape:connector-curvature="0"
             id="path30"
             style="fill:#29568f;fill-opacity:1;fill-rule:nonzero;stroke:none"
             d="m 365.611,420.958 13.258,0 0,-53.013 -13.258,0 0,53.013 z" /><path
             d="m 390.0723,420.9517 13.258,0 0,-21.147 18.977,21.147 17.567,0 -19.274,-20.1 19.871,-32.895 -14.742,0 -14.442,23.514 -7.957,-8.107 0,-15.407 -13.258,0 0,52.995 z"
             style="fill:#29568f;fill-opacity:1;fill-rule:nonzero;stroke:none"
             id="path34"
             inkscape:connector-curvature="0" /></g><g
           id="g44"
           transform="translate(199.5762,345.1133)"
           style="fill:#d39100;fill-opacity:1"><path
             d="m 0,0 c -4.116,4.254 -9.815,6.863 -15.791,6.863 -11.533,0 -20.876,-10.023 -20.876,-21.422 0,-11.402 9.413,-21.425 21.014,-21.425 5.838,0 11.537,2.746 15.653,6.867 l 0,-7.141 c -4.461,-3.23 -9.957,-5.086 -15.448,-5.086 -14.624,0 -26.983,11.883 -26.983,26.578 0,14.832 12.152,26.989 26.983,26.989 5.766,0 10.852,-1.649 15.448,-5.082 L 0,0 Z"
             style="fill:#d39100;fill-opacity:1;fill-rule:nonzero;stroke:none"
             id="path46"
             inkscape:connector-curvature="0" /></g><g
           id="g48"
           transform="translate(212.4893,330.5547)"
           style="fill:#d39100;fill-opacity:1"><path
             d="m 0,0 c 0,-11.676 9.473,-21.426 21.219,-21.426 11.746,0 21.219,9.75 21.219,21.426 0,11.742 -9.34,21.422 -21.219,21.422 C 9.34,21.422 0,11.742 0,0 m 48.211,-0.07 c 0,-14.899 -12.225,-26.715 -26.992,-26.715 -14.758,0 -26.982,11.816 -26.982,26.715 0,14.832 12.224,26.851 26.982,26.851 14.767,0 26.992,-12.019 26.992,-26.851"
             style="fill:#d39100;fill-opacity:1;fill-rule:nonzero;stroke:none"
             id="path50"
             inkscape:connector-curvature="0" /></g><g
           id="g52"
           transform="translate(274.291,310.0195)"
           style="fill:#d39100;fill-opacity:1"><path
             d="m 0,0 14.281,0 0,-5.355 -20.052,0 0,51.777 5.771,0 L 0,0 Z"
             style="fill:#d39100;fill-opacity:1;fill-rule:nonzero;stroke:none"
             id="path54"
             inkscape:connector-curvature="0" /></g><g
           id="g56"
           transform="translate(300.0371,310.0195)"
           style="fill:#d39100;fill-opacity:1"><path
             d="m 0,0 14.293,0 0,-5.355 -20.059,0 0,51.777 5.766,0 L 0,0 Z"
             style="fill:#d39100;fill-opacity:1;fill-rule:nonzero;stroke:none"
             id="path58"
             inkscape:connector-curvature="0" /></g><g
           id="g60"
           transform="translate(320.0215,356.4414)"
           style="fill:#d39100;fill-opacity:1"><path
             d="m 0,0 26.848,0 0,-5.359 -21.078,0 0,-15.379 20.464,0 0,-5.356 -20.464,0 0,-20.328 21.078,0 0,-5.355 L 0,-51.777 0,0 Z"
             style="fill:#d39100;fill-opacity:1;fill-rule:nonzero;stroke:none"
             id="path62"
             inkscape:connector-curvature="0" /></g><g
           id="g64"
           transform="translate(404.8301,330.6875)"
           style="fill:#d39100;fill-opacity:1"><path
             d="m 0,0 c 0.137,-7 -0.617,-12.773 -5.359,-18.258 -4.739,-5.504 -11.946,-8.66 -19.153,-8.66 -14.558,0 -26.644,12.09 -26.644,26.645 0,14.836 12.086,26.921 26.984,26.921 9.067,0 16.41,-4.054 21.91,-11.195 l -4.191,-3.91 c -4.328,6.109 -10.16,9.746 -17.789,9.746 -11.809,0 -21.149,-9.953 -21.149,-21.629 0,-5.496 2.203,-10.715 6.039,-14.629 3.782,-3.777 9.278,-6.59 14.704,-6.59 8.992,0 18.464,6.59 18.464,16.204 l -15.375,0 0,5.355 L 0,0 Z"
             style="fill:#d39100;fill-opacity:1;fill-rule:nonzero;stroke:none"
             id="path66"
             inkscape:connector-curvature="0" /></g><g
           id="g68"
           transform="translate(413.002,356.4414)"
           style="fill:#d39100;fill-opacity:1"><path
             d="m 0,0 26.849,0 0,-5.359 -21.078,0 0,-15.379 20.464,0 0,-5.356 -20.464,0 0,-20.328 21.078,0 0,-5.355 L 0,-51.777 0,0 Z"
             style="fill:#d39100;fill-opacity:1;fill-rule:nonzero;stroke:none"
             id="path70"
             inkscape:connector-curvature="0" /></g><path
           d="m 271.096,449.122 56.051,0 0,-16.379 -56.051,0 0,16.379 z"
           style="fill:#d39100;fill-opacity:1;fill-rule:nonzero;stroke:none"
           id="path72"
           inkscape:connector-curvature="0" /><g
           id="g74"
           transform="translate(310.1934,525.8257)"
           style="fill:#29568f;fill-opacity:1"><path
             d="m 0,0 c 0,-6.116 -4.953,-11.075 -11.072,-11.075 -6.108,0 -11.069,4.959 -11.069,11.075 0,6.112 4.961,11.071 11.069,11.071 C -4.953,11.071 0,6.112 0,0"
             style="fill:#29568f;fill-opacity:1;fill-rule:nonzero;stroke:none"
             id="path76"
             inkscape:connector-curvature="0" /></g><g
           id="g78"
           transform="translate(248.0811,492.0005)"
           style="fill:#29568f;fill-opacity:1"><path
             d="m 0,0 c 0,-6.116 -4.949,-11.071 -11.071,-11.071 -6.11,0 -11.069,4.955 -11.069,11.071 0,6.116 4.959,11.067 11.069,11.067 C -4.949,11.067 0,6.116 0,0"
             style="fill:#29568f;fill-opacity:1;fill-rule:nonzero;stroke:none"
             id="path80"
             inkscape:connector-curvature="0" /></g><g
           id="g82"
           transform="translate(372.4824,492.0005)"
           style="fill:#29568f;fill-opacity:1"><path
             d="m 0,0 c 0,-6.116 -4.957,-11.071 -11.078,-11.071 -6.11,0 -11.07,4.955 -11.07,11.071 0,6.116 4.96,11.071 11.07,11.071 C -4.957,11.071 0,6.116 0,0"
             style="fill:#29568f;fill-opacity:1;fill-rule:nonzero;stroke:none"
             id="path84"
             inkscape:connector-curvature="0" /></g><g
           id="g86"
           transform="translate(271.6943,495.4673)"
           style="fill:#29568f;fill-opacity:1"><path
             d="m 0,0 c 4.458,0 8.733,-0.821 12.671,-2.313 4.062,3.206 9.183,5.121 14.762,5.121 5.652,0 10.836,-1.964 14.921,-5.242 C 46.39,-0.863 50.769,0 55.358,0 55.714,0 56.054,-0.021 56.405,-0.027 49.901,8.924 39.343,14.751 27.433,14.751 15.511,14.751 4.962,8.917 -1.552,-0.038 -1.036,-0.021 -0.515,0 0,0"
             style="fill:#29568f;fill-opacity:1;fill-rule:nonzero;stroke:none"
             id="path88"
             inkscape:connector-curvature="0" /></g><g
           id="g90"
           transform="translate(326.1035,490.6606)"
           style="fill:#29568f;fill-opacity:1"><path
             d="m 0,0 c -10.762,0 -20.406,-4.744 -26.961,-12.26 l 0,0.045 c -6.57,7.524 -16.227,12.278 -26.997,12.278 -19.779,0 -35.811,-16.034 -35.811,-35.81 0,-8.165 2.742,-15.692 7.34,-21.713 l 18.553,0 c -8.232,3.768 -13.953,12.066 -13.953,21.713 0,10.109 6.286,18.745 15.159,22.227 -0.07,-0.905 -0.119,-1.817 -0.119,-2.74 0,-7.742 2.466,-14.898 6.644,-20.757 l 17.385,0 c -7.22,4.102 -12.094,11.862 -12.094,20.757 0,1.419 0.131,2.806 0.37,4.155 7.642,-1.038 13.759,-5.536 17.773,-12.75 3.143,-5.662 4.918,-9.435 5.723,-11.262 l 0,-0.12 c 0.797,1.809 2.574,5.604 5.746,11.318 4.012,7.217 10.14,11.716 17.785,12.749 0.23,-1.328 0.352,-2.694 0.352,-4.09 0,-8.895 -4.875,-16.655 -12.09,-20.757 l 17.39,0 c 4.184,5.859 6.637,13.015 6.637,20.757 0,0.9 -0.047,1.788 -0.113,2.671 8.875,-3.483 15.16,-12.116 15.16,-22.225 0,-9.639 -5.723,-17.943 -13.953,-21.709 l 18.547,0 c 4.601,6.024 7.34,13.547 7.34,21.709 C 35.813,-16.038 19.781,0 0,0"
             style="fill:#29568f;fill-opacity:1;fill-rule:nonzero;stroke:none"
             id="path92"
             inkscape:connector-curvature="0" /></g></g><g
         transform="translate(-1.5380769,-3.2)"
         id="g4178"><rect
           style="fill:#d39100;fill-opacity:1;stroke:none"
           id="rect3026"
           width="282.26505"
           height="38.794724"
           x="160.08395"
           y="-296.98022"
           transform="scale(1,-1)" /><flowRoot
           xml:space="preserve"
           id="flowRoot3023"
           style="font-style:normal;font-variant:normal;font-weight:bold;font-stretch:normal;font-size:37.5px;line-height:125%;font-family:TradeGothic;-inkscape-font-specification:'TradeGothic Bold';letter-spacing:10px;word-spacing:0px;fill:#29568f;fill-opacity:1;stroke:none"
           transform="matrix(0.8,0,0,-0.8,58.678898,842.59713)"><flowRegion
             id="flowRegion3025"><rect
               id="rect3027"
               width="352.8313"
               height="47.378613"
               x="196.76059"
               y="683.36676"
               style="font-size:37.5px;letter-spacing:10px;fill:#29568f;fill-opacity:1" /></flowRegion><flowPara
             id="flowPara3029"
             style="font-style:normal;font-variant:normal;font-weight:normal;font-stretch:normal;font-size:37.5px;font-family:'League Gothic';-inkscape-font-specification:'League Gothic';letter-spacing:6.5px;fill:#29568f;fill-opacity:1">STENUNGSUND</flowPara></flowRoot></g></g></g></svg>